<svg id="Landing_Page" data-name="Landing Page" xmlns="http://www.w3.org/2000/svg" viewBox="0 0 165.08 85.93"><defs><style>.cls-1{fill:#00e0ea;}.cls-2{fill:none;}.cls-3{fill:#fff;}</style></defs><title>Artboard 22</title><polygon class="cls-1" points="61.3 35.1 51.42 40.86 61.3 46.63 61.3 58.16 31.65 40.86 61.3 23.57 61.3 35.1"/><polygon class="cls-2" points="51.42 52.39 31.65 63.92 11.88 52.39 31.65 40.86 51.42 52.39"/><polygon class="cls-3" points="11.88 29.33 11.88 52.39 2 58.16 2 23.57 11.88 29.33"/><polygon class="cls-2" points="31.65 40.86 11.88 52.39 11.88 29.33 31.65 40.86"/><polygon class="cls-2" points="51.42 29.33 31.65 40.86 11.88 29.33 31.65 17.8 51.42 29.33"/><polygon class="cls-3" points="61.3 23.57 51.42 29.33 31.65 17.8 11.88 29.33 2 23.57 31.65 6.27 61.3 23.57"/><polygon class="cls-3" points="61.3 58.16 31.65 75.45 2 58.16 11.88 52.39 31.65 63.92 51.42 52.39 61.3 58.16"/><path class="cls-3" d="M66,13.33V68.4H80.48V13.33Z"/><path class="cls-3" d="M154.93,20.26c-5.1-4.58-12.35-6.81-22.16-6.81a95.6,95.6,0,0,0-13.7,1l-3.6.52V54.91H100.12V13.22H85.5V68.29h35a62.13,62.13,0,0,0,10.39,0c8.76-.74,17.37-1.46,24-7.8,5.3-5,8.11-12.21,8.11-20.75C163,31.55,160.28,25,154.93,20.26Z"/><polygon class="cls-1" points="153.93 40.86 124.28 58.16 124.28 46.63 134.16 40.86 124.28 35.1 124.28 23.57 153.93 40.86"/><path class="cls-3" d="M57.64,71.91l-2.16,6.33h1l.64-1.94H59.2l.66,1.94h1l-2.17-6.33Zm.77,1.94L59,75.51H57.35l.57-1.67c.08-.25.16-.52.24-.84C58.23,73.27,58.31,73.55,58.41,73.84Z"/><rect class="cls-3" x="61.55" y="71.58" width="0.98" height="6.66"/><path class="cls-3" d="M68.68,73.54a1.61,1.61,0,0,0-1,.33,1.89,1.89,0,0,0-.44.48,1.39,1.39,0,0,0-1.28-.8,1.59,1.59,0,0,0-1.35.67l0-.57h-.88v.09c0,.34,0,.7,0,1.19v3.31h1V75.48a1.12,1.12,0,0,1,1-1.11c.53,0,.84.42.84,1.13v2.73h1V75.42a1.23,1.23,0,0,1,.06-.37,1,1,0,0,1,.87-.67c.73,0,.88.69.88,1.28v2.59h1V75.54C70.22,74.07,69.43,73.54,68.68,73.54Z"/><path class="cls-3" d="M74.66,77.09V75.44a1.65,1.65,0,0,0-1.77-1.89,2.84,2.84,0,0,0-1.51.41l-.06,0,.24.69.09-.06a2.13,2.13,0,0,1,1.11-.32.83.83,0,0,1,.92.94h0a3.21,3.21,0,0,0-2.25.67A1.43,1.43,0,0,0,71,77a1.35,1.35,0,0,0,1.44,1.35,1.77,1.77,0,0,0,1.32-.56l.05.46h.91l0-.1A6,6,0,0,1,74.66,77.09Zm-2,.48a.63.63,0,0,1-.68-.68.71.71,0,0,1,.21-.54A2.11,2.11,0,0,1,73.66,76h0v.68a.75.75,0,0,1,0,.23A1,1,0,0,1,72.67,77.57Z"/><path class="cls-3" d="M77.94,74.36a1.79,1.79,0,0,1,.89.2l.09.05.23-.79-.06,0a2.8,2.8,0,0,0-1.16-.24A2.35,2.35,0,0,0,75.47,76a2.2,2.2,0,0,0,2.3,2.34,3.08,3.08,0,0,0,1.31-.27l.06,0L79,77.26l-.09,0a2.22,2.22,0,0,1-1,.21,1.58,1.58,0,0,1,0-3.16Z"/><path class="cls-3" d="M81.7,73.54A2.23,2.23,0,0,0,79.53,76a2.15,2.15,0,0,0,2.27,2.31A3.68,3.68,0,0,0,83.31,78l.06,0-.18-.74-.09,0a2.83,2.83,0,0,1-1.2.22,1.33,1.33,0,0,1-1.44-1.37h3.11v-.11a2.79,2.79,0,0,0,0-.35A1.94,1.94,0,0,0,81.7,73.54Zm-.06.74a1,1,0,0,1,.71.27,1.34,1.34,0,0,1,.32.87H80.49A1.23,1.23,0,0,1,81.63,74.29Z"/><path class="cls-3" d="M86.74,73.54a1.73,1.73,0,0,0-1.42.68l0-.58h-.89v.09c0,.34,0,.7,0,1.19v3.31h1V75.49a1.08,1.08,0,0,1,.05-.35,1.06,1.06,0,0,1,1-.76c.78,0,.94.66.94,1.22v2.63h1V75.51C88.4,73.64,87,73.54,86.74,73.54Z"/><path class="cls-3" d="M92.83,77.09V75.44a1.65,1.65,0,0,0-1.77-1.89,2.84,2.84,0,0,0-1.51.41l-.06,0,.24.69.09-.06a2.13,2.13,0,0,1,1.11-.32.83.83,0,0,1,.92.94h0a3.21,3.21,0,0,0-2.25.67A1.43,1.43,0,0,0,89.19,77a1.35,1.35,0,0,0,1.44,1.35A1.77,1.77,0,0,0,92,77.77l.05.46h.91l0-.1A6,6,0,0,1,92.83,77.09Zm-2,.48a.63.63,0,0,1-.68-.68.71.71,0,0,1,.21-.54A2.11,2.11,0,0,1,91.84,76h0v.68a.75.75,0,0,1,0,.23A1,1,0,0,1,90.85,77.57Z"/><path class="cls-3" d="M98.93,73.54a1.61,1.61,0,0,0-1,.33,1.88,1.88,0,0,0-.44.48,1.39,1.39,0,0,0-1.28-.8,1.59,1.59,0,0,0-1.35.67l0-.57h-.88v.09c0,.34,0,.7,0,1.19v3.31h1V75.48a1.12,1.12,0,0,1,1-1.11c.53,0,.84.42.84,1.13v2.73h1V75.42a1.23,1.23,0,0,1,.06-.37,1,1,0,0,1,.87-.67c.73,0,.88.69.88,1.28v2.59h1V75.54C100.48,74.07,99.68,73.54,98.93,73.54Z"/><rect class="cls-3" x="101.62" y="73.64" width="0.98" height="4.59"/><path class="cls-3" d="M102.11,71.9a.58.58,0,0,0-.59.59.56.56,0,0,0,.57.58.61.61,0,0,0,.45-.17.55.55,0,0,0,.15-.4A.56.56,0,0,0,102.11,71.9Z"/><path class="cls-3" d="M105.62,73.54A2.23,2.23,0,0,0,103.45,76a2.15,2.15,0,0,0,2.27,2.31,3.68,3.68,0,0,0,1.51-.28l.06,0-.18-.74-.09,0a2.83,2.83,0,0,1-1.2.22,1.33,1.33,0,0,1-1.44-1.37h3.11v-.11a2.79,2.79,0,0,0,0-.35A1.94,1.94,0,0,0,105.62,73.54Zm-.06.74a1,1,0,0,1,.71.27,1.34,1.34,0,0,1,.32.87h-2.18A1.23,1.23,0,0,1,105.55,74.29Z"/><path class="cls-3" d="M110.67,73.54a1.73,1.73,0,0,0-1.42.68l0-.58h-.89v.09c0,.34,0,.7,0,1.19v3.31h1V75.49a1.08,1.08,0,0,1,.05-.35,1.06,1.06,0,0,1,1-.76c.78,0,.94.66.94,1.22v2.63h1V75.51C112.32,73.64,110.94,73.54,110.67,73.54Z"/><path class="cls-3" d="M114.57,72.35l-1,.26v1h-.69v.78h.69v2.33a1.69,1.69,0,0,0,.33,1.21,1.2,1.2,0,0,0,.94.37,2.07,2.07,0,0,0,.75-.12l.06,0,0-.77-.1,0a1.71,1.71,0,0,1-.45.05c-.37,0-.52-.22-.52-.77v-2.3h1.16v-.78h-1.16Z"/><path class="cls-3" d="M118.38,73.54A2.26,2.26,0,0,0,116.09,76a2.19,2.19,0,0,0,2.21,2.36,2.24,2.24,0,0,0,2.3-2.43A2.17,2.17,0,0,0,118.38,73.54Zm0,4c-.73,0-1.26-.68-1.26-1.62s.4-1.63,1.28-1.63,1.25.84,1.25,1.62C119.6,76.88,119.07,77.56,118.34,77.56Z"/><path class="cls-3" d="M125.25,76.29c-.07.21-.14.43-.2.63l0,.05c-.06-.21-.14-.45-.22-.67l-1-2.67h-1.06l1.69,4.19a.73.73,0,0,1,.05.18.63.63,0,0,1-.06.16,2.38,2.38,0,0,1-.66.87,2.05,2.05,0,0,1-.68.38l-.08,0,.25.83h.07a2.24,2.24,0,0,0,1-.54,6.64,6.64,0,0,0,1.55-2.8l1.26-3.27h-1Z"/><polygon class="cls-3" points="130.66 71.91 129.69 71.91 129.69 78.23 133.3 78.23 133.3 77.4 130.66 77.4 130.66 71.91"/><path class="cls-3" d="M135.84,73.54A2.26,2.26,0,0,0,133.55,76a2.19,2.19,0,0,0,2.21,2.36,2.24,2.24,0,0,0,2.3-2.43A2.17,2.17,0,0,0,135.84,73.54Zm0,4c-.73,0-1.26-.68-1.26-1.62s.4-1.63,1.28-1.63,1.25.84,1.25,1.62C137.06,76.88,136.53,77.56,135.8,77.56Z"/><path class="cls-3" d="M142,74.15a1.59,1.59,0,0,0-1.33-.61A2.2,2.2,0,0,0,138.59,76a2.07,2.07,0,0,0,2,2.24,1.71,1.71,0,0,0,1.35-.59v.26c0,1-.47,1.46-1.35,1.46A2.42,2.42,0,0,1,139.3,79l-.09-.06-.26.78.05,0a2.93,2.93,0,0,0,1.52.38,2.45,2.45,0,0,0,1.67-.55,2.6,2.6,0,0,0,.66-2.08V74.94c0-.53,0-.87,0-1.21v-.09H142Zm-1.2.19a1.08,1.08,0,0,1,1,.79,1,1,0,0,1,0,.34v.8a1.31,1.31,0,0,1-.06.4,1.1,1.1,0,0,1-1,.77c-.91,0-1.23-.81-1.23-1.51C139.57,75,140.07,74.34,140.81,74.34Z"/><polygon class="cls-3" points="145.9 71.73 144.78 71.73 143.86 73.21 144.63 73.21 145.9 71.73"/><rect class="cls-3" x="143.98" y="73.64" width="0.98" height="4.59"/><path class="cls-3" d="M147.68,75.5c-.61-.23-.79-.38-.79-.67s.26-.52.66-.52a1.66,1.66,0,0,1,.86.24l.09.06.26-.75-.06,0a2.33,2.33,0,0,0-1.14-.29,1.45,1.45,0,0,0-1.62,1.38c0,.41.21,1,1.23,1.33.58.21.77.4.77.73s-.29.57-.78.57a2,2,0,0,1-1-.31l-.09-.06-.26.78.06,0a2.63,2.63,0,0,0,1.29.31c1.06,0,1.75-.55,1.75-1.41C148.9,76.26,148.52,75.82,147.68,75.5Z"/><path class="cls-3" d="M150.91,72.35l-1,.26v1h-.69v.78H150v2.33a1.69,1.69,0,0,0,.33,1.21,1.2,1.2,0,0,0,.94.37,2.07,2.07,0,0,0,.75-.12l.06,0,0-.77-.1,0a1.71,1.71,0,0,1-.45.05c-.37,0-.52-.22-.52-.77v-2.3h1.16v-.78h-1.16Z"/><path class="cls-3" d="M153.29,71.9a.58.58,0,0,0-.59.59.56.56,0,0,0,.57.58.61.61,0,0,0,.45-.17.55.55,0,0,0,.15-.4A.56.56,0,0,0,153.29,71.9Z"/><rect class="cls-3" x="152.81" y="73.64" width="0.98" height="4.59"/><path class="cls-3" d="M157.1,74.36a1.79,1.79,0,0,1,.89.2l.09.05.23-.79-.06,0a2.8,2.8,0,0,0-1.16-.24A2.35,2.35,0,0,0,154.63,76a2.2,2.2,0,0,0,2.3,2.34,3.08,3.08,0,0,0,1.31-.27l.06,0-.17-.77-.09,0a2.22,2.22,0,0,1-1,.21,1.58,1.58,0,0,1,0-3.16Z"/><path class="cls-3" d="M162.43,78.13a6,6,0,0,1-.07-1V75.44a1.65,1.65,0,0,0-1.77-1.89,2.84,2.84,0,0,0-1.51.41L159,74l.24.69.09-.06a2.13,2.13,0,0,1,1.11-.32.83.83,0,0,1,.92.94h0a3.21,3.21,0,0,0-2.25.67,1.43,1.43,0,0,0-.42,1.06,1.35,1.35,0,0,0,1.44,1.35,1.77,1.77,0,0,0,1.32-.56l.05.46h.91Zm-2.06-.56a.63.63,0,0,1-.68-.68.71.71,0,0,1,.21-.54,2.11,2.11,0,0,1,1.45-.38h0v.68a.75.75,0,0,1,0,.23A1,1,0,0,1,160.37,77.57Z"/></svg>